<svg viewBox="0 0 60 60" xmlns="http://www.w3.org/2000/svg"><g><g id="043---Data-Cloud" fill-rule="nonzero" transform="translate(-1 -1)"><path id="Shape" d="m55 25c-2.9246159.0054296-5.4201335 2.1166966-5.91 5h-3.525c-.9956515-2.941215-3.7429612-4.9306877-6.848-4.959-.123 0-.245.018-.368.024l6.157-6.157c2.5263302 1.7682245 5.985863 1.3075928 7.9615069-1.0600628s1.8093858-5.8537576-.3826139-8.02265114c-2.1919997-2.16889356-5.6796678-2.29820133-8.0262552-.2975791-2.3465874 2.00062224-2.7705337 5.46484204-.9756378 7.97229304l-6.128 6.129c-1.1611004-1.7226763-2.9314791-2.9417544-4.955-3.412v-7.307c3.0755618-.5198648 5.2398292-3.30957434 4.9789831-6.41783734-.2608461-3.10826301-2.8597942-5.49824244-5.9789831-5.49824244s-5.718137 2.38997943-5.9789831 5.49824244c-.2608461 3.108263 1.9034213 5.89797254 4.9789831 6.41783734v7.1c-2.2329107.084049-4.3306366 1.0916239-5.792 2.782l-5.291-5.292c1.8640389-2.5735349 1.4426119-6.1465674-.9690257-8.21580092-2.4116376-2.0692335-6.0072175-1.94287367-8.26764629.29055075-2.26042884 2.23342437-2.42999103 5.82722607-.3898899 8.26355737 2.04010109 2.4363314 5.60781089 2.9006685 8.20356189 1.0676928l5.571 5.571c-.3846711.741367-.6573017 1.5356691-.809 2.357-2.1986311.0688465-4.2067775 1.2652695-5.314 3.166h-4.032c-.5198648-3.0755618-3.30957434-5.2398292-6.41783734-4.9789831-3.10826301.2608461-5.49824244 2.8597942-5.49824244 5.9789831s2.38997943 5.718137 5.49824244 5.9789831c3.108263.2608461 5.89797254-1.9034213 6.41783734-4.9789831h3.244c-.1012357.4655686-.1528572.9405533-.154 1.417-.0205282 2.9620355 1.946472 5.5703596 4.8 6.365l-3.31 3.31c-2.529011-1.7639038-5.9874354-1.2978371-7.95928917 1.0726156s-1.80050997 5.855931.39433416 8.0215515c2.19484411 2.1656206 5.68230591 2.2902322 8.02611631.2867837s2.7634811-5.4678091.9658387-7.9729508l4.5-4.5h6.583v9.09c-3.0755618.5198648-5.2398292 3.3095743-4.9789831 6.4178373s2.8597942 5.4982425 5.9789831 5.4982425 5.718137-2.3899795 5.9789831-5.4982425-1.9034213-5.8979725-4.9789831-6.4178373v-9.09h6.586l4.5 4.5c-1.8364599 2.5457653-1.4151228 6.0742125.9691404 8.1159751 2.3842633 2.0417626 5.9355248 1.9152481 8.1684516-.2910029 2.2329269-2.2062509 2.4021111-5.7557356.3891499-8.1643644-2.0129612-2.4086289-5.53609-2.8723402-8.1037419-1.0666078l-3.483-3.483c2.998264-1.0634861 4.9943827-3.9087779 4.974-7.09 0-.176-.014-.348-.026-.521h3.116c.5307431 3.1399085 3.4219898 5.3182428 6.5864972 4.9624243 3.1645073-.3558186 5.4998098-3.1218284 5.3200107-6.3011972-.1797992-3.1793687-2.8120609-5.6644536-5.9965079-5.6612271zm-43.8-8.142c-1.56203795-1.5621184-1.56199444-4.0947409.0000972-5.6568057 1.5620916-1.56206474 4.094714-1.56206474 5.6568056 0 1.5620916 1.5620648 1.5621351 4.0946873.0000972 5.6568057-.7468527.7563763-1.7655352 1.1821139-2.8285 1.1821139s-2.0816473-.4257376-2.8285-1.1821139zm-4.2 18.142c-2.209139 0-4-1.790861-4-4s1.790861-4 4-4 4 1.790861 4 4-1.790861 4-4 4zm28 20c0 2.209139-1.790861 4-4 4s-4-1.790861-4-4 1.790861-4 4-4 4 1.790861 4 4zm10.142-43.8c1.3491407-1.34968735 3.4638315-1.55835441 5.0507453-.4983821 1.5869138 1.0599722 2.2040426 3.0933466 1.4739557 4.8565283s-2.6040363 2.7650664-4.4757563 2.3929099c-1.8717201-.3721565-3.2198751-2.0146965-3.2199447-3.9230561-.003027-1.0612277.4186371-2.0795593 1.171-2.828zm-18.142-4.2c0-2.209139 1.790861-4 4-4s4 1.790861 4 4-1.790861 4-4 4-4-1.790861-4-4zm-10.142 43.8c-1.5836906 1.5092067-4.0733094 1.5092067-5.657 0-1.56203795-1.5621184-1.56199444-4.0947409.0000972-5.6568057 1.5620916-1.5620647 4.094714-1.5620647 5.6568056 0 1.5620916 1.5620648 1.5621351 4.0946873.0000972 5.6568057zm33.942-5.658c.7501901.7501514 1.1716458 1.7675983 1.1716458 2.8285s-.4214557 2.0783486-1.1716458 2.8285c-1.5821292 1.5121388-4.0738708 1.5121388-5.656 0-1.5324486-1.5668606-1.5186351-4.0751404.0309781-5.6250275 1.5496131-1.5498871 4.0578904-1.5641441 5.6250219-.0319725zm-12.083-7.142h-16.3c-2.4666197-.0892635-4.4201477-2.1147656-4.4201477-4.583s1.953528-4.4937365 4.4201477-4.583c.1950317.0006088.3898027.0143063.583.041.2755701.0383999.5546799-.0397449.7702482-.2156532.2155684-.1759083.3481034-.4336744.3657518-.7113468.0922451-3.031047 2.3902262-5.5374742 5.4018941-5.8918912s5.8287305 1.5500652 6.6221059 4.4768912c.1526281.5231688.6960621.8277942 1.222.685.435236-.1176704.8841379-.1771877 1.335-.177 2.950061.1054578 5.2871206 2.5275546 5.2871206 5.4795s-2.3370596 5.3740422-5.2871206 5.4795zm16.283-3c-2.209139 0-4-1.790861-4-4s1.790861-4 4-4 4 1.790861 4 4-1.790861 4-4 4z"/></g></g></svg>