<svg xmlns="http://www.w3.org/2000/svg" viewBox="0 0 74 74"><g id="color_line" data-name="color line"><path d="m22.91 3v53.11h-4.52a7.454 7.454 0 0 0 -7.45 7.44v-53.07a7.481 7.481 0 0 1 7.48-7.48z" fill="#fe7058"></path><path d="m10.94 64.05a.5.5 0 0 1 -.5-.5v-53.07a7.989 7.989 0 0 1 7.98-7.98h4.49a.5.5 0 0 1 .5.5v53.11a.5.5 0 0 1 -.5.5h-4.52a6.953 6.953 0 0 0 -6.95 6.94.5.5 0 0 1 -.5.5zm7.48-60.55a6.988 6.988 0 0 0 -6.98 6.98v49.22a7.958 7.958 0 0 1 6.95-4.087h4.02v-52.113z" fill="#323c6b"></path><path d="m22.91 3h40.15v53.11h-40.15z" fill="#e1e6e9"></path><path d="m63.06 3v53.11h-3.46v-50.027h-36.69v-3.083z" fill="#d5d6db"></path><path d="m63.059 71a13.628 13.628 0 0 1 0-14.893h-44.666a7.452 7.452 0 0 0 -7.452 7.441v.011a7.452 7.452 0 0 0 7.452 7.441z" fill="#bbbbcd"></path><path d="m63.059 71.5h-44.666a7.946 7.946 0 1 1 0-15.893h44.666a.5.5 0 0 1 .43.755 13.059 13.059 0 0 0 0 14.381.5.5 0 0 1 -.43.756zm-44.666-14.893a6.946 6.946 0 1 0 0 13.893h43.807a13.948 13.948 0 0 1 0-13.893z" fill="#323c6b"></path><path d="m45.135 16.125h10.7a2.085 2.085 0 0 1 2.085 2.085v15.233a2.085 2.085 0 0 1 -2.085 2.085h-25.328a2.085 2.085 0 0 1 -2.085-2.085v-15.234a2.085 2.085 0 0 1 2.085-2.085h10.7" fill="#27ccbc"></path><path d="m57.92 18.21v15.23a2.089 2.089 0 0 1 -2.09 2.09h-25.32a2.1 2.1 0 0 1 -2.09-2.09v-.42h25.12a2.078 2.078 0 0 0 2.08-2.08v-14.82h.21a2.089 2.089 0 0 1 2.09 2.09z" fill="#21b3a9"></path><rect fill="#e7aa6c" height="5.206" rx=".679" width="3.932" x="41.206" y="13.743"></rect><path d="m44.459 19.449h-2.575a1.18 1.18 0 0 1 -1.179-1.179v-3.849a1.18 1.18 0 0 1 1.179-1.179h2.575a1.18 1.18 0 0 1 1.178 1.179v3.849a1.18 1.18 0 0 1 -1.178 1.179zm-2.575-5.206a.179.179 0 0 0 -.179.179v3.848a.179.179 0 0 0 .179.179h2.575a.179.179 0 0 0 .178-.179v-3.849a.179.179 0 0 0 -.178-.179z" fill="#323c6b"></path><circle cx="35.318" cy="21.309" fill="#eeefee" r="2.012"></circle><path d="m35.317 23.821a2.512 2.512 0 1 1 2.512-2.513 2.515 2.515 0 0 1 -2.512 2.513zm0-4.025a1.512 1.512 0 1 0 1.512 1.512 1.514 1.514 0 0 0 -1.512-1.508z" fill="#323c6b"></path><path d="m35.9 24.794h-1.161a3.63 3.63 0 0 0 -3.63 3.63h8.417a3.63 3.63 0 0 0 -3.626-3.63z" fill="#eeefee"></path><g fill="#323c6b"><path d="m39.526 28.924h-8.417a.5.5 0 0 1 -.5-.5 4.134 4.134 0 0 1 4.13-4.13h1.161a4.135 4.135 0 0 1 4.13 4.13.5.5 0 0 1 -.504.5zm-7.877-1h7.337a3.134 3.134 0 0 0 -3.09-2.63h-1.157a3.134 3.134 0 0 0 -3.09 2.63z"></path><path d="m55.232 22.636h-11.555a.5.5 0 0 1 0-1h11.555a.5.5 0 0 1 0 1z"></path><path d="m55.232 27.292h-11.555a.5.5 0 0 1 0-1h11.555a.5.5 0 0 1 0 1z"></path><path d="m55.232 31.948h-24.123a.5.5 0 0 1 0-1h24.123a.5.5 0 0 1 0 1z"></path><path d="m57.959 42.25h-29.577a.5.5 0 0 1 0-1h29.577a.5.5 0 0 1 0 1z"></path><path d="m57.959 48.333h-29.577a.5.5 0 0 1 0-1h29.577a.5.5 0 0 1 0 1z"></path><path d="m56.25 60.813h-38.125a.5.5 0 0 1 0-1h38.125a.5.5 0 0 1 0 1z"></path><path d="m56.25 66.729h-38.125a.5.5 0 0 1 0-1h38.125a.5.5 0 0 1 0 1z"></path><path d="m63.06 56.61h-40.15a.5.5 0 0 1 -.5-.5v-53.11a.5.5 0 0 1 .5-.5h40.15a.5.5 0 0 1 .5.5v53.11a.5.5 0 0 1 -.5.5zm-39.65-1h39.15v-52.11h-39.15z"></path><path d="m55.834 36.028h-25.327a2.587 2.587 0 0 1 -2.584-2.584v-15.235a2.587 2.587 0 0 1 2.584-2.584h10.7a.5.5 0 1 1 0 1h-10.7a1.586 1.586 0 0 0 -1.584 1.584v15.234a1.586 1.586 0 0 0 1.584 1.584h25.327a1.586 1.586 0 0 0 1.584-1.584v-15.234a1.586 1.586 0 0 0 -1.584-1.584h-10.7a.5.5 0 0 1 0-1h10.7a2.587 2.587 0 0 1 2.584 2.584v15.234a2.587 2.587 0 0 1 -2.584 2.585z"></path><path d="m7.94 12.542a.5.5 0 0 1 -.5-.5v-.625a.5.5 0 0 1 1 0v.625a.5.5 0 0 1 -.5.5z"></path><path d="m8.071 9.5a.5.5 0 0 1 -.5-.571 11.011 11.011 0 0 1 6.741-8.629.5.5 0 1 1 .376.927 10.006 10.006 0 0 0 -6.123 7.84.5.5 0 0 1 -.494.433z"></path><path d="m66.06 47.688a.5.5 0 0 1 -.5-.5v-.875a.5.5 0 0 1 1 0v.875a.5.5 0 0 1 -.5.5z"></path><path d="m66.06 44.563a.5.5 0 0 1 -.5-.5v-8.75a.5.5 0 0 1 1 0v8.75a.5.5 0 0 1 -.5.5z"></path></g><path d="m20.382 39.172.006.537a.761.761 0 0 1 -.767.767.772.772 0 0 1 -.573-.245.793.793 0 0 1 -.206-.522l-.006-.525a.773.773 0 1 1 1.546-.012z" fill="#fff"></path><path d="m18.849 36.25-.058-8.382a.773.773 0 1 1 1.546-.012l.058 8.382a.774.774 0 0 1 -1.34.534.817.817 0 0 1 -.206-.522z" fill="#fff"></path></g></svg>